PathFileType	4	(X/Y/Z)	 s08c0102.trc
DataRate	CameraRate	NumFrames	NumMarkers	Units	OrigDataRate	OrigDataStartFrame	OrigNumFrames
200	200	5	50	mm	200	251	2000
Frame#	Time	racr			lacr			c7			jug			rlel			rdr			llel			ldr			s2			lic			ric			lasi			rasi			rpsi			lpsi			rgt			lgt			rth1			rth2			rth3			rth4			rlfc			rmfc			rsh1			rsh2			rsh3			rsh4			rlmal			rmmal			rcal			rtoe			rmt5			lth1			lth2			lth4			lth3			llfc			lmfc			llmal			lmmal			lcal			lmt5			lsh1			lsh2			lsh3			lsh4			ltoe			SBIKE			LBIKE			RBIKE			
		X1	Y1	Z1	X2	Y2	Z2	X3	Y3	Z3	X4	Y4	Z4	X5	Y5	Z5	X6	Y6	Z6	X7	Y7	Z7	X8	Y8	Z8	X9	Y9	Z9	X10	Y10	Z10	X11	Y11	Z11	X12	Y12	Z12	X13	Y13	Z13	X14	Y14	Z14	X15	Y15	Z15	X16	Y16	Z16	X17	Y17	Z17	X18	Y18	Z18	X19	Y19	Z19	X20	Y20	Z20	X21	Y21	Z21	X22	Y22	Z22	X23	Y23	Z23	X24	Y24	Z24	X25	Y25	Z25	X26	Y26	Z26	X27	Y27	Z27	X28	Y28	Z28	X29	Y29	Z29	X30	Y30	Z30	X31	Y31	Z31	X32	Y32	Z32	X33	Y33	Z33	X34	Y34	Z34	X35	Y35	Z35	X36	Y36	Z36	X37	Y37	Z37	X38	Y38	Z38	X39	Y39	Z39	X40	Y40	Z40	X41	Y41	Z41	X42	Y42	Z42	X43	Y43	Z43	X44	Y44	Z44	X45	Y45	Z45	X46	Y46	Z46	X47	Y47	Z47	X48	Y48	Z48	X49	Y49	Z49	X50	Y50	Z50	
251	1.2550	548.635697	1350.528688	-31.018481	579.907157	1359.965380	-414.125390	549.942105	1431.975221	-217.242572	526.424666	1278.573785	-211.027737	598.421320	1105.774392	43.347328	806.461865	892.133471	-35.900949	616.372647	1103.325600	-480.443056	813.239574	897.949070	-400.299621	2.869507	1208.454222	-236.026526	177.332680	1166.703596	-372.974430	156.559914	1205.182221	-67.473164	189.467348	1111.268861	-340.151586	172.890288	1150.556585	-99.581619	32.948640	1251.108905	-186.236819	45.856795	1244.288791	-285.436955	71.548769	1119.589606	-22.209182	84.274998	1062.980301	-407.276533	214.520317	1036.051942	-18.494588	302.022226	1021.246704	-17.074779	368.918878	965.615672	-18.156864	317.081140	1053.394088	-29.127423	470.671110	896.774111	-36.712552	450.048837	894.122187	-172.465382	392.347360	792.787121	-12.035210	371.309875	707.627400	-34.443871	311.417130	646.016278	-43.510317	396.951379	700.166500	-66.506071	247.214998	547.049796	-59.641996	266.888410	570.590403	-145.136123	165.686710	519.211374	-104.231093	462.392757	510.472341	-95.789817	373.427468	478.812408	-30.730890	109.699278	930.442000	-423.240224	143.817519	850.183065	-417.249501	178.379678	855.239512	-405.266285	131.792174	761.876491	-412.707686	144.291104	636.203988	-387.743038	135.293961	614.646338	-287.994711	65.787194	222.046066	-392.757336	85.132568	245.305326	-306.881575	2.838055	180.153735	-354.991151	217.339336	170.119593	-413.858222	115.141676	511.766316	-418.517389	119.637691	427.624792	-400.039780	85.929912	346.117495	-404.316219	138.259955	428.201087	-365.774723	289.455959	216.472780	-343.801209	-135.021655	942.086643	-222.127358	26.598001	84.563540	-426.264526	16.946688	79.742048	-28.765903	
252	1.2600	548.577053	1350.574103	-31.013388	579.879892	1360.073724	-414.135694	549.844317	1431.969275	-217.225059	526.353020	1278.564903	-210.942807	598.427909	1105.806292	43.294963	806.448250	892.155955	-35.936543	616.426066	1103.380653	-480.369730	813.275062	897.976257	-400.308721	2.775386	1208.449956	-236.079237	177.289301	1166.613642	-373.003329	156.499751	1205.175884	-67.504525	189.423781	1111.207857	-340.154218	172.831148	1150.515458	-99.594182	32.890889	1251.105499	-186.304168	45.748255	1244.274662	-285.491077	71.467281	1119.622286	-22.219087	84.208934	1062.941282	-407.300698	214.447773	1036.078551	-18.420667	301.930243	1021.314037	-16.952702	368.852873	965.656815	-18.052453	317.298545	1053.386627	-29.285592	470.598439	896.812402	-36.587033	450.019883	894.158190	-172.329012	392.244717	792.798425	-11.930793	371.177435	707.697183	-34.346376	311.250687	646.123061	-43.482996	396.812478	700.220654	-66.446282	247.035616	547.183692	-59.639936	266.744670	570.686221	-145.120234	165.493066	519.334336	-104.238569	462.194312	510.570290	-95.792803	373.219706	478.929847	-30.746227	109.700993	930.507332	-423.327871	143.888018	850.193748	-417.255659	178.451297	855.268071	-405.300526	131.912725	761.884691	-412.715088	144.434931	636.188069	-387.772531	135.480223	614.642244	-288.040936	66.049977	222.002860	-392.728698	85.364635	245.259737	-306.889549	3.108940	180.197632	-354.980996	217.540092	170.001623	-413.872683	115.311269	511.749517	-418.530077	119.858208	427.624195	-400.052692	86.141001	346.111711	-404.319428	138.477102	428.214049	-365.819819	289.709605	216.331934	-343.817198	-135.021363	942.085730	-222.123769	26.602729	84.559837	-426.254156	16.943808	79.723259	-28.807644	
253	1.2650	548.575435	1350.611538	-31.016671	579.860196	1360.218787	-414.127723	549.752872	1431.986519	-217.230683	526.295607	1278.559723	-210.906378	598.431726	1105.837492	43.263913	806.493154	892.188872	-35.915382	616.513753	1103.454143	-480.290168	813.285617	898.006343	-400.307607	2.680463	1208.487265	-236.066897	177.257758	1166.545147	-373.056289	156.441211	1205.147542	-67.512332	189.366313	1111.150795	-340.157168	172.794050	1150.496971	-99.591282	32.818246	1251.087933	-186.360267	45.673191	1244.220345	-285.587161	71.386791	1119.668220	-22.222497	84.140904	1062.916832	-407.338591	214.355077	1036.113047	-18.372600	301.868892	1021.314254	-16.874170	368.794196	965.681145	-17.919612	317.217902	1053.428467	-29.200954	470.524315	896.842865	-36.444482	449.985284	894.186315	-172.195089	392.126276	792.845885	-11.832286	371.024643	707.755142	-34.286672	311.099257	646.224440	-43.443358	396.684032	700.261568	-66.375249	246.853214	547.336371	-59.631978	266.599129	570.807946	-145.139084	165.279211	519.474135	-104.252417	462.005568	510.620757	-95.789539	373.011047	479.014973	-30.755894	109.719002	930.513184	-423.326653	143.930235	850.223199	-417.277843	178.498518	855.297516	-405.325314	132.021714	761.919684	-412.730004	144.548081	636.235463	-387.815107	135.643528	614.650195	-288.077151	66.342875	221.827369	-392.448763	85.638815	245.249172	-306.894351	3.363572	180.216655	-354.991846	217.788144	169.879982	-413.876521	115.456266	511.761903	-418.586184	120.036568	427.623037	-400.087276	86.340873	346.084653	-404.305103	138.663102	428.249474	-365.836002	289.946326	216.184238	-343.825393	-135.024427	942.087024	-222.119543	26.597937	84.547572	-426.263614	16.956759	79.731296	-28.797622	
254	1.2700	548.561843	1350.648600	-31.072030	579.884425	1360.276361	-414.112802	549.642705	1432.031292	-217.222872	526.223590	1278.529863	-210.853732	598.409282	1105.854440	43.217784	806.472698	892.219478	-35.946369	616.586939	1103.519700	-480.236471	813.326644	898.048353	-400.323501	2.615985	1208.471366	-236.104067	177.204670	1166.478864	-373.126444	156.390281	1205.125222	-67.520269	189.289594	1111.092223	-340.132918	172.733434	1150.485722	-99.584639	32.746594	1251.088445	-186.397035	45.598338	1244.190554	-285.724509	71.289946	1119.667406	-22.251822	84.095657	1062.881835	-407.338483	214.278140	1036.126308	-18.296089	301.783541	1021.341491	-16.776786	368.704096	965.729962	-17.794765	317.160775	1053.459595	-29.086119	470.459463	896.898866	-36.294262	449.936671	894.238469	-172.082790	392.039815	792.898763	-11.708524	370.868933	707.821956	-34.199120	310.951697	646.326516	-43.421328	396.560216	700.320877	-66.311613	246.698251	547.717310	-59.174295	266.411231	571.048459	-145.112380	165.061162	519.659429	-104.216973	461.822368	510.719839	-95.784187	372.782265	479.106528	-30.778026	109.760972	930.396539	-423.143355	143.972111	850.236632	-417.287785	178.536004	855.347870	-405.367550	132.088109	761.938841	-412.757375	144.633427	636.234172	-387.865061	135.773114	614.647411	-288.122072	66.586746	221.839899	-392.444054	85.905991	245.269931	-306.947840	3.613057	180.215083	-355.022422	218.055340	169.737062	-413.880097	115.583528	511.741724	-418.625729	120.216137	427.630626	-400.128641	86.540779	346.059128	-404.292108	138.818584	428.249040	-365.879741	290.202512	216.031164	-343.861302	-135.030965	942.083432	-222.116376	26.604536	84.546516	-426.266370	16.977777	79.762968	-28.764279	
255	1.2750	548.571566	1350.665886	-31.152510	579.885217	1360.323698	-414.113463	549.537405	1432.055128	-217.210842	526.172522	1278.529309	-210.839202	598.379074	1105.844708	43.171608	806.499313	892.251434	-35.906009	616.665603	1103.591021	-480.189587	813.350053	898.073062	-400.316392	2.545977	1208.458934	-236.141599	177.139073	1166.414572	-373.143808	156.324718	1205.092546	-67.536518	189.235381	1111.047299	-340.148277	172.683951	1150.473639	-99.587432	32.667457	1251.078955	-186.435754	45.528877	1244.140407	-285.947700	71.213082	1119.661925	-22.293308	84.027484	1062.876849	-407.356757	214.190869	1036.124615	-18.240212	301.701478	1021.373960	-16.684283	368.642136	965.763695	-17.678079	317.077038	1053.478218	-28.998769	470.366420	896.939718	-36.139288	449.903986	894.267419	-171.935389	391.917612	792.928126	-11.619295	370.724574	707.884820	-34.167552	310.770269	646.437069	-43.355340	396.425160	700.413590	-66.254768	246.493430	547.844425	-59.254866	266.223837	571.212067	-145.051139	164.881488	519.792154	-104.199811	461.611873	510.824271	-95.791458	372.561610	479.212411	-30.795936	109.758684	930.403673	-423.161941	143.994016	850.257635	-417.332121	178.557962	855.377247	-405.410664	132.141263	761.959184	-412.780090	144.694519	636.245585	-387.931258	135.897811	614.624708	-288.164365	66.888852	222.035279	-392.560233	86.193146	245.288097	-306.991745	3.830769	180.241299	-355.025202	218.315628	169.617113	-413.864308	115.673302	511.761964	-418.689880	120.371035	427.641283	-400.153632	86.706875	346.068570	-404.332156	139.032551	428.281961	-365.948052	290.462909	215.868440	-343.860652	-135.031133	942.089708	-222.122199	26.597048	84.567243	-426.264006	17.228823	80.235882	-28.275237	
